<?xml version="1.0" standalone="no"?>
<!DOCTYPE svg PUBLIC "-//W3C//DTD SVG 20010904//EN"
 "http://www.w3.org/TR/2001/REC-SVG-20010904/DTD/svg10.dtd">
<svg version="1.0" xmlns="http://www.w3.org/2000/svg"
 width="700.000000pt" height="700.000000pt" viewBox="0 0 700.000000 700.000000"
 preserveAspectRatio="xMidYMid meet">
<metadata>
Created by potrace 1.14, written by Peter Selinger 2001-2017
</metadata>
<g transform="translate(0.000000,700.000000) scale(0.100000,-0.100000)"
fill="#000000" stroke="none">
<path d="M2126 6114 c-140 -38 -127 -20 -545 -768 -19 -34 -144 -257 -279
-496 -135 -239 -256 -455 -270 -480 -13 -25 -39 -70 -57 -100 -18 -30 -46 -80
-62 -110 -16 -30 -70 -125 -118 -210 -191 -335 -203 -359 -209 -425 -2 -27 2
-70 8 -95 10 -38 83 -178 153 -295 7 -11 16 -27 20 -35 4 -8 22 -42 41 -75 68
-120 300 -531 322 -570 12 -22 52 -92 88 -155 36 -63 76 -135 90 -160 14 -25
53 -94 87 -155 34 -60 73 -130 87 -155 27 -48 44 -79 113 -200 23 -41 53 -93
65 -115 198 -355 299 -525 335 -560 24 -23 65 -49 96 -60 53 -19 84 -20 1404
-20 1475 -1 1392 -4 1482 57 23 15 51 41 62 57 21 29 161 270 161 276 0 2 15
30 34 62 18 32 45 78 58 103 14 25 164 290 333 590 315 560 419 744 472 840
27 48 66 116 123 215 9 17 31 55 48 85 16 30 42 75 57 100 55 95 85 167 88
214 7 89 -4 117 -142 359 -47 83 -64 113 -88 156 -13 25 -32 60 -42 76 -10 17
-33 57 -51 90 -18 33 -77 138 -131 232 -54 95 -113 199 -130 230 -18 32 -60
108 -94 168 -35 61 -75 133 -90 160 -15 28 -45 79 -65 115 -20 36 -48 85 -62
110 -14 25 -96 171 -183 325 -87 154 -185 328 -218 388 -81 148 -147 212 -237
233 -57 13 -2706 11 -2754 -2z"/>
</g>
</svg>
